<?xml version="1.0" encoding="utf-8"?>
<!-- Generator: Adobe Illustrator 16.0.0, SVG Export Plug-In . SVG Version: 6.00 Build 0)  -->
<!DOCTYPE svg PUBLIC "-//W3C//DTD SVG 1.1//EN" "http://www.w3.org/Graphics/SVG/1.1/DTD/svg11.dtd">
<svg version="1.1" id="Layer_1" xmlns="http://www.w3.org/2000/svg" xmlns:xlink="http://www.w3.org/1999/xlink" x="0px" y="0px"
	 width="214px" height="184px" viewBox="0 0 214 184" enable-background="new 0 0 214 184" xml:space="preserve">
<rect fill="#8C2321" width="214" height="184"/>
<g>
	<path fill="#FFFFFF" d="M181.728,131.572c0-2.61-0.473-4.557-1.431-5.827c-0.949-1.272-2.307-1.908-4.065-1.908
		c-1.771,0-3.142,0.636-4.096,1.908c-0.959,1.271-1.439,3.217-1.439,5.827c0,2.531,0.48,4.45,1.439,5.759
		c0.954,1.312,2.324,1.962,4.096,1.962c1.746,0,3.103-0.641,4.06-1.925C181.247,136.086,181.728,134.153,181.728,131.572
		 M185.233,131.572c0,3.403-0.82,6.028-2.457,7.877c-1.641,1.852-3.825,2.777-6.545,2.777c-2.809,0-5.014-0.957-6.629-2.866
		c-1.608-1.911-2.41-4.505-2.41-7.788c0-3.369,0.826-5.995,2.485-7.864c1.655-1.87,3.838-2.803,6.554-2.803
		c2.72,0,4.904,0.933,6.545,2.797C184.413,125.56,185.233,128.19,185.233,131.572 M166.532,125.115h-0.179
		c-0.252-0.072-0.524-0.12-0.808-0.135c-0.285-0.02-0.626-0.026-1.021-0.026c-0.918,0-1.822,0.197-2.731,0.599
		c-0.902,0.396-1.759,0.989-2.565,1.772v14.34h-3.401v-20.199h3.401v3.001c1.239-1.092,2.325-1.871,3.243-2.321
		c0.926-0.451,1.821-0.68,2.685-0.68c0.351,0,0.612,0.007,0.79,0.026c0.173,0.018,0.369,0.049,0.586,0.085V125.115z M149.19,142.06
		c-1.858,0-3.304-0.524-4.339-1.581c-1.038-1.055-1.556-2.722-1.556-4.999v-11.192h-2.295v-2.821h2.295v-5.802h3.401v5.802h6.252
		v2.821h-6.252v9.599c0,1.023,0.017,1.815,0.054,2.371c0.038,0.557,0.173,1.074,0.413,1.556c0.205,0.422,0.538,0.742,0.994,0.953
		c0.458,0.208,1.079,0.312,1.865,0.312c0.546,0,1.085-0.078,1.603-0.24c0.519-0.168,0.895-0.302,1.121-0.408h0.202v3.049
		c-0.638,0.188-1.287,0.329-1.946,0.428C150.351,142.012,149.744,142.06,149.19,142.06 M132.014,142.153
		c-1.354,0-2.61-0.179-3.792-0.545c-1.17-0.364-2.144-0.746-2.916-1.16v-3.813h0.179c0.289,0.227,0.628,0.48,1.025,0.759
		c0.388,0.276,0.913,0.567,1.56,0.87c0.579,0.265,1.215,0.502,1.906,0.702c0.699,0.204,1.412,0.31,2.164,0.31
		c0.545,0,1.119-0.063,1.735-0.192c0.617-0.123,1.073-0.282,1.375-0.479c0.42-0.271,0.722-0.567,0.913-0.886
		c0.185-0.314,0.278-0.781,0.278-1.41c0-0.811-0.224-1.422-0.66-1.827c-0.436-0.414-1.216-0.755-2.338-1.032
		c-0.433-0.111-0.999-0.234-1.697-0.377c-0.705-0.143-1.346-0.302-1.937-0.47c-1.542-0.444-2.666-1.137-3.365-2.067
		c-0.693-0.939-1.046-2.065-1.046-3.396c0-1.819,0.685-3.302,2.059-4.448c1.379-1.142,3.203-1.716,5.48-1.716
		c1.122,0,2.246,0.135,3.381,0.412c1.136,0.277,2.085,0.63,2.856,1.049v3.637h-0.179c-0.87-0.685-1.84-1.229-2.907-1.623
		c-1.06-0.4-2.14-0.601-3.225-0.601c-1.118,0-2.062,0.234-2.834,0.705c-0.769,0.47-1.16,1.186-1.16,2.137
		c0,0.843,0.229,1.474,0.685,1.888c0.457,0.414,1.194,0.759,2.204,1.023c0.507,0.132,1.072,0.261,1.69,0.39
		c0.623,0.126,1.276,0.271,1.963,0.438c1.498,0.378,2.622,1,3.374,1.866c0.753,0.868,1.13,2.046,1.13,3.541
		c0,0.87-0.175,1.692-0.52,2.469c-0.341,0.777-0.845,1.446-1.506,2c-0.722,0.608-1.543,1.064-2.447,1.376
		C134.529,141.997,133.387,142.153,132.014,142.153 M118.402,139.516c-0.279,0.204-0.648,0.489-1.113,0.859
		c-0.461,0.364-0.912,0.66-1.344,0.875c-0.605,0.317-1.186,0.557-1.747,0.725c-0.561,0.166-1.346,0.252-2.356,0.252
		c-0.833,0-1.621-0.154-2.369-0.47s-1.399-0.753-1.968-1.322c-0.544-0.553-0.974-1.24-1.301-2.054
		c-0.33-0.814-0.489-1.674-0.489-2.574c0-1.401,0.296-2.593,0.888-3.574c0.587-0.988,1.524-1.766,2.794-2.345
		c1.136-0.521,2.476-0.878,4.018-1.076c1.543-0.197,3.202-0.343,4.987-0.443v-0.648c0-0.795-0.126-1.436-0.366-1.931
		c-0.24-0.488-0.573-0.863-1.013-1.13c-0.431-0.277-0.962-0.458-1.584-0.551c-0.63-0.092-1.271-0.134-1.933-0.134
		c-0.783,0-1.708,0.117-2.763,0.35c-1.062,0.235-2.124,0.579-3.184,1.025h-0.196v-3.456c0.629-0.179,1.523-0.376,2.691-0.593
		c1.172-0.216,2.325-0.326,3.472-0.326c1.383,0,2.557,0.11,3.505,0.326c0.949,0.217,1.81,0.604,2.567,1.172
		c0.733,0.557,1.282,1.271,1.64,2.156c0.366,0.876,0.544,1.95,0.544,3.215v13.821h-3.38V139.516z M118.402,136.688v-5.611
		c-0.811,0.075-1.827,0.175-3.063,0.296c-1.239,0.131-2.233,0.311-2.993,0.539c-0.905,0.277-1.653,0.702-2.239,1.277
		c-0.592,0.567-0.887,1.37-0.887,2.394c0,1.163,0.326,2.039,0.973,2.624c0.654,0.594,1.605,0.89,2.857,0.89
		c1.072,0,2.043-0.234,2.912-0.697C116.828,137.937,117.642,137.368,118.402,136.688 M87.387,144.898
		c0.227,0.1,0.566,0.229,1.01,0.391c0.45,0.158,0.956,0.314,1.517,0.462c0.631,0.156,1.21,0.285,1.74,0.384
		c0.532,0.093,1.104,0.141,1.734,0.141c1.05,0,1.938-0.135,2.665-0.414c0.728-0.277,1.301-0.666,1.71-1.158
		c0.387-0.495,0.659-1.067,0.814-1.719c0.153-0.654,0.235-1.393,0.235-2.227v-1.772c-0.915,0.794-1.814,1.384-2.69,1.767
		c-0.884,0.375-1.988,0.566-3.309,0.566c-2.301,0-4.132-0.857-5.499-2.568c-1.361-1.709-2.04-4.171-2.04-7.377
		c0-1.672,0.233-3.158,0.702-4.458c0.47-1.293,1.104-2.393,1.9-3.3c0.761-0.864,1.653-1.537,2.69-2.008
		c1.037-0.465,2.111-0.702,3.22-0.702c1.051,0,1.956,0.123,2.721,0.369c0.765,0.249,1.532,0.602,2.303,1.058l0.196-0.866h3.202
		v17.901c0,3.428-0.748,5.938-2.24,7.537c-1.498,1.605-3.781,2.408-6.854,2.408c-0.988,0-1.999-0.081-3.03-0.234
		c-1.031-0.155-1.985-0.37-2.881-0.636v-3.544H87.387z M98.813,136.185v-11.081c-0.847-0.414-1.624-0.702-2.338-0.877
		c-0.722-0.178-1.432-0.267-2.147-0.267c-1.721,0-3.079,0.636-4.067,1.902c-0.987,1.267-1.481,3.074-1.481,5.438
		c0,2.241,0.378,3.951,1.13,5.117c0.752,1.169,1.974,1.754,3.659,1.754c0.882,0,1.788-0.174,2.721-0.526
		C97.225,137.301,98.064,136.806,98.813,136.185 M76.02,131.356c0-1.976-0.303-3.415-0.913-4.303
		c-0.604-0.895-1.554-1.339-2.846-1.339c-0.567,0-1.127,0.091-1.689,0.271c-0.562,0.179-1.11,0.45-1.653,0.813v10.216
		c0.339,0.145,0.709,0.246,1.108,0.302c0.407,0.063,0.884,0.095,1.44,0.095c1.542,0,2.682-0.508,3.429-1.513
		C75.644,134.893,76.02,133.379,76.02,131.356 M82.492,131.228c0,3.247-0.821,5.857-2.467,7.85c-1.642,1.986-3.67,2.982-6.085,2.982
		c-1.011,0-1.887-0.116-2.634-0.345c-0.746-0.229-1.544-0.582-2.387-1.068v8.468h-6.324v-27.758h6.324v2.116
		c0.926-0.797,1.875-1.442,2.838-1.938c0.962-0.493,2.077-0.741,3.344-0.741c2.35,0,4.169,0.934,5.46,2.803
		C81.851,125.468,82.492,128.013,82.492,131.228 M53.483,131.552c0-1.203-0.101-2.209-0.299-3.01
		c-0.203-0.805-0.473-1.446-0.827-1.925c-0.37-0.509-0.795-0.86-1.264-1.064c-0.469-0.197-1.006-0.297-1.604-0.297
		c-0.569,0-1.081,0.089-1.542,0.268c-0.457,0.171-0.876,0.505-1.266,0.999c-0.356,0.47-0.647,1.116-0.864,1.939
		c-0.217,0.818-0.325,1.851-0.325,3.09c0,1.248,0.104,2.247,0.307,3.02c0.204,0.766,0.47,1.376,0.795,1.834
		c0.334,0.47,0.761,0.814,1.266,1.03c0.506,0.217,1.066,0.327,1.678,0.327c0.505,0,1.024-0.11,1.549-0.327
		c0.523-0.216,0.944-0.543,1.252-0.975c0.377-0.52,0.662-1.142,0.853-1.876C53.382,133.856,53.483,132.845,53.483,131.552
		 M59.972,131.516c0,3.348-0.912,5.978-2.74,7.9c-1.825,1.921-4.404,2.884-7.742,2.884c-3.319,0-5.894-0.963-7.731-2.884
		c-1.837-1.923-2.757-4.553-2.757-7.9c0-3.374,0.92-6.02,2.757-7.931c1.838-1.907,4.413-2.864,7.731-2.864
		c3.325,0,5.904,0.963,7.736,2.882C59.06,125.527,59.972,128.164,59.972,131.516 M32.874,142.06c-2.58,0-4.456-0.531-5.626-1.593
		c-1.18-1.063-1.764-2.797-1.764-5.203v-9.494h-2.428v-4.413h2.428v-5.803h6.321v5.803h6.097v4.413h-6.097v7.192
		c0,0.714,0.006,1.332,0.019,1.863c0.012,0.531,0.112,1.005,0.29,1.426c0.167,0.426,0.469,0.759,0.895,1.007
		c0.425,0.245,1.049,0.368,1.869,0.368c0.338,0,0.784-0.073,1.333-0.214c0.55-0.15,0.933-0.279,1.147-0.402h0.544v4.468
		c-0.686,0.182-1.42,0.323-2.189,0.428C34.941,142.012,33.997,142.06,32.874,142.06"/>
	<path fill-rule="evenodd" clip-rule="evenodd" fill="#FFFFFF" d="M79.803,55.1c7.456,8.996,42.135,9.64,59.727,0.416
		c16.74-8.776,2.195-24.866-35.23-25.494c-45.9-0.768-67.676,19.317-50.348,33.714C80.283,83.66,142.034,79.081,157.517,59.8
		c3.055-3.803,3.459-8.956-0.512-13.937c-1.22-1.531-2.469-1.131-1.7,0.628c1.817,4.167-0.683,8.932-4.21,11.617
		c-11.317,8.6-27.786,11.743-49.149,11.571c-17.767-0.146-30.972-5.203-34.719-12.01c-6.785-12.319,11.159-22.9,36.874-22.526
		c10.831,0.157,19.751,2.928,23.979,6.531c12.054,10.274-8.063,17.194-22.898,14.58c-9.375-1.649-12.883-7.472-2.439-9.734
		c3.605-0.783,5.083-1.439,4.164-2.26C101.238,39.192,73.108,44.559,79.803,55.1"/>
	<path fill-rule="evenodd" clip-rule="evenodd" fill="#FFFFFF" d="M165.688,65.176c-6.713,23.063-31.8,40.207-61.721,40.207
		c-29.924,0-55.012-17.144-61.723-40.207c8.746,11.492,33.079,19.762,61.723,19.762C132.609,84.938,156.941,76.668,165.688,65.176"
		/>
	<path fill="#FFFFFF" d="M187.345,116.659c0-0.087-0.02-0.167-0.053-0.238c-0.036-0.072-0.096-0.129-0.177-0.176
		c-0.074-0.037-0.158-0.066-0.251-0.078c-0.092-0.014-0.21-0.02-0.354-0.02h-0.305v1.161h0.236c0.145,0,0.279-0.012,0.404-0.034
		c0.124-0.027,0.22-0.066,0.291-0.123c0.07-0.054,0.121-0.117,0.154-0.198C187.328,116.875,187.345,116.776,187.345,116.659
		 M189.046,119.552h-1.248l-1.199-1.513h-0.393v1.513h-0.976v-4.12h1.5c0.279,0,0.501,0.014,0.67,0.035
		c0.169,0.022,0.337,0.079,0.501,0.174c0.186,0.106,0.32,0.232,0.401,0.383c0.084,0.144,0.126,0.331,0.126,0.558
		c0,0.307-0.084,0.556-0.245,0.747c-0.165,0.19-0.377,0.339-0.635,0.449L189.046,119.552z M190.03,117.593
		c0-0.892-0.313-1.657-0.944-2.296c-0.631-0.636-1.389-0.954-2.277-0.954c-0.891,0-1.648,0.318-2.278,0.954
		c-0.629,0.639-0.945,1.404-0.945,2.296c0,0.888,0.316,1.651,0.945,2.289c0.63,0.64,1.388,0.959,2.278,0.959
		c0.889,0,1.646-0.319,2.277-0.959C189.717,119.244,190.03,118.48,190.03,117.593 M190.943,117.593c0,1.139-0.403,2.115-1.212,2.922
		c-0.811,0.811-1.784,1.214-2.923,1.214c-1.142,0-2.117-0.403-2.926-1.214c-0.807-0.807-1.21-1.783-1.21-2.922
		c0-1.144,0.403-2.119,1.21-2.926c0.809-0.809,1.784-1.213,2.926-1.213c1.139,0,2.112,0.404,2.923,1.213
		C190.54,115.474,190.943,116.449,190.943,117.593"/>
</g>
</svg>
